<?xml version="1.0" encoding="UTF-8" standalone="no"?>
<svg
   width="16"
   height="16"
   version="1.1"
   id="svg1"
   sodipodi:docname="discord-tray-unread.svg"
   inkscape:version="1.3.2 (091e20ef0f, 2023-11-25, custom)"
   xmlns:inkscape="http://www.inkscape.org/namespaces/inkscape"
   xmlns:sodipodi="http://sodipodi.sourceforge.net/DTD/sodipodi-0.dtd"
   xmlns="http://www.w3.org/2000/svg"
   xmlns:svg="http://www.w3.org/2000/svg">
  <sodipodi:namedview
     id="namedview1"
     pagecolor="#ffffff"
     bordercolor="#000000"
     borderopacity="0.25"
     inkscape:showpageshadow="2"
     inkscape:pageopacity="0.0"
     inkscape:pagecheckerboard="0"
     inkscape:deskcolor="#d1d1d1"
     inkscape:zoom="17.75"
     inkscape:cx="7.971831"
     inkscape:cy="7.971831"
     inkscape:window-width="1260"
     inkscape:window-height="664"
     inkscape:window-x="0"
     inkscape:window-y="0"
     inkscape:window-maximized="1"
     inkscape:current-layer="svg1" />
  <defs
     id="defs1">
    <style
       id="current-color-scheme"
       type="text/css">
   .ColorScheme-Text { color:#dfdfdf; } .ColorScheme-Highlight { color:#5294e2; }
  </style>
  </defs>
  <path
     style="fill:#d6cc99;fill-opacity:1"
     class="ColorScheme-Text"
     d="M 6.3789062 2 C 6.3789062 2 4.6184395 1.957047 2.7539062 3.4980469 C 0.88928408 5.0391469 5.9211895e-16 8.2292185 0 12.824219 C 0 12.824219 2.1383111 14.899 5 15 C 5 15 5.6115556 14.548 6 14 C 4.3555555 13.453 3.4394531 11.632813 3.4394531 11.632812 C 4.9546531 12.585814 6.4288888 12.983 8 13 C 9.571111 12.983 11.045347 12.585814 12.560547 11.632812 C 12.560547 11.632813 11.644445 13.453 10 14 C 10.388444 14.548 11 15 11 15 C 13.861689 14.899 16 12.824219 16 12.824219 C 16 8.2292185 15.110716 5.0391469 13.246094 3.4980469 C 11.38156 1.957047 9.6210938 2 9.6210938 2 L 9.4921875 2.171875 C 11.822943 2.906575 12.882812 4.5449219 12.882812 4.5449219 C 12.882812 4.5449219 12.598252 4.3730781 12.119141 4.1425781 C 10.665985 3.3577781 9.333333 3 8 3 C 6.6666666 3 5.3340149 3.3577781 3.8808594 4.1425781 C 3.4017483 4.3730781 3.1171875 4.5449219 3.1171875 4.5449219 C 3.1171875 4.5449219 4.177057 2.906575 6.5078125 2.171875 L 6.3789062 2 z M 5.5 8 C 6.3381317 8 7.0149989 8.668 7 9.5 C 7 10.332 6.3381317 11 5.5 11 C 4.6766671 11 4 10.332 4 9.5 C 4 8.668 4.6619684 8 5.5 8 z M 10.5 8 C 11.338032 8 12 8.668 12 9.5 C 12 10.332 11.323333 11 10.5 11 C 9.661868 11 9 10.332 9 9.5 C 8.9850011 8.668 9.661868 8 10.5 8 z"
     id="path1" />
  <circle
     style="fill:currentColor"
     class="ColorScheme-Highlight"
     cx="14.5"
     cy="1.5"
     r="1.5"
     id="circle1" />
</svg>
