<?xml version="1.0" encoding="UTF-8" standalone="no"?>
<!-- Uploaded to: SVG Repo, www.svgrepo.com, Generator: SVG Repo Mixer Tools -->

<svg
   height="800px"
   width="800px"
   version="1.1"
   id="Layer_1"
   viewBox="0 0 249.182 249.182"
   xml:space="preserve"
   sodipodi:docname="muted-speaker.svg"
   inkscape:version="1.3.2 (091e20ef0f, 2023-11-25, custom)"
   xmlns:inkscape="http://www.inkscape.org/namespaces/inkscape"
   xmlns:sodipodi="http://sodipodi.sourceforge.net/DTD/sodipodi-0.dtd"
   xmlns:xlink="http://www.w3.org/1999/xlink"
   xmlns="http://www.w3.org/2000/svg"
   xmlns:svg="http://www.w3.org/2000/svg"><defs
   id="defs14"><linearGradient
     id="linearGradient9"><stop
       style="stop-color:#458588;stop-opacity:1;"
       offset="0"
       id="stop7" /><stop
       style="stop-color:#689d6a;stop-opacity:1;"
       offset="1"
       id="stop8" /></linearGradient><linearGradient
     id="linearGradient1"><stop
       style="stop-color:#689d6a;stop-opacity:1;"
       offset="0"
       id="stop3" /><stop
       style="stop-color:#458588;stop-opacity:1;"
       offset="1"
       id="stop6" /></linearGradient><linearGradient
     id="linearGradient1-2"><stop
       style="stop-color:#d4145a;stop-opacity:1;"
       offset="0"
       id="stop4" /><stop
       style="stop-color:#662d8c;stop-opacity:1;"
       offset="1"
       id="stop5" /></linearGradient><linearGradient
     id="linearGradient1-1"><stop
       style="stop-color:#8651bb;stop-opacity:1;"
       offset="0"
       id="stop1" /><stop
       style="stop-color:#da025d;stop-opacity:1;"
       offset="1"
       id="stop2" /></linearGradient><linearGradient
     inkscape:collect="always"
     xlink:href="#linearGradient1"
     id="linearGradient2"
     x1="0.48249469"
     y1="113.73845"
     x2="68.566788"
     y2="113.73845"
     gradientUnits="userSpaceOnUse"
     gradientTransform="matrix(0.89583669,0,0,1,6.3159559,0.96395354)" /><linearGradient
     inkscape:collect="always"
     xlink:href="#linearGradient9"
     id="linearGradient4"
     x1="59.406742"
     y1="114.3518"
     x2="171.63062"
     y2="114.3518"
     gradientUnits="userSpaceOnUse" /><linearGradient
     inkscape:collect="always"
     xlink:href="#linearGradient9"
     id="linearGradient8"
     x1="83.503716"
     y1="2.0959558"
     x2="262.52942"
     y2="2.0959558"
     gradientUnits="userSpaceOnUse"
     gradientTransform="matrix(1.1184511,0,0,1.1151374,-21.323306,-2.6372523)" /></defs><sodipodi:namedview
   id="namedview14"
   pagecolor="#ffffff"
   bordercolor="#000000"
   borderopacity="0.25"
   inkscape:showpageshadow="2"
   inkscape:pageopacity="0.0"
   inkscape:pagecheckerboard="0"
   inkscape:deskcolor="#d1d1d1"
   inkscape:zoom="0.32625327"
   inkscape:cx="619.15088"
   inkscape:cy="662.06233"
   inkscape:window-width="1260"
   inkscape:window-height="665"
   inkscape:window-x="0"
   inkscape:window-y="0"
   inkscape:window-maximized="1"
   inkscape:current-layer="Layer_1" />
<path
   style="fill:url(#linearGradient4)"
   d="m 167.512,46.232 c 5.916,44.233 5.45,90.082 -1.342,136.315 -0.329,2.164 -1.616,4.081 -3.506,5.176 -1.068,0.603 -2.273,0.931 -3.478,0.931 -0.904,0 -1.808,-0.192 -2.684,-0.548 L 63.763,149.378 c -2.657,-1.123 -3.928023,-3.29802 -3.873023,-6.22802 L 59.983,83.919 c 0.027,-2.931 1.808,-5.533 4.519,-6.601 l 93.506,-36.783 c 1.999,-0.794 4.245,-0.603 6.108,0.493 1.863,1.123 3.122,3.04 3.396,5.204 z m -14.05,125.112 c 5.012,-38.673 5.396,-76.963 1.205,-114.129 l -80.633,31.716 -0.493,49.026 z"
   id="path10"
   inkscape:label="2"
   sodipodi:nodetypes="cccsccccccccccccc" /><path
   style="fill:url(#linearGradient2);stroke-width:1.00124"
   d="m 62.912798,78.56394 c 3.844479,0.02738 -2.185995,3.786894 -2.213676,7.814857 L 60.157397,141.095 c 0,1.91663 5.750833,5.67699 4.424196,7.03891 -1.299947,1.33353 -9.568622,0.15504 -11.382616,0.15504 h -0.08106 l -10.85727,-0.13893 C 24.390589,147.98371 6.5598919,147.59297 6.7496949,128.95604 V 94.515473 C 6.9394969,76.017466 24.905624,78.908001 42.58588,78.908001 h 0.351925 z m -16.61787,55.11502 0.406296,-40.190383 -3.898849,-0.02738 H 42.58588 c -4.846871,0 -12.444299,-1.429828 -15.910163,2.125569 -3.520234,3.582777 -2.473942,11.789764 -2.528313,16.928154 v 1.66615 c -0.10874,10.61041 -2.293977,19.81357 7.886134,19.9241 z"
   id="path11"
   inkscape:label="1"
   sodipodi:nodetypes="ccccsccccscccccsccccc" />
<rect
   style="fill:url(#linearGradient8);stroke-width:0.430103"
   id="rect1"
   width="200.23148"
   height="10.554443"
   x="72.07151"
   y="-5.5771952"
   transform="matrix(0.71962489,0.69436303,-0.67392143,0.73880302,0,0)"
   inkscape:transform-center-x="-4.7735537"
   inkscape:transform-center-y="17.184793" /></svg>
