<?xml version="1.0" encoding="UTF-8" standalone="no"?>
<!-- Uploaded to: SVG Repo, www.svgrepo.com, Transformed by: SVG Repo Mixer Tools -->

<svg
   width="120px"
   height="120px"
   viewBox="0 0 24 24"
   fill="none"
   version="1.1"
   id="svg2"
   sodipodi:docname="unmuted-mic.svg"
   inkscape:version="1.3.2 (091e20ef0f, 2023-11-25, custom)"
   xmlns:inkscape="http://www.inkscape.org/namespaces/inkscape"
   xmlns:sodipodi="http://sodipodi.sourceforge.net/DTD/sodipodi-0.dtd"
   xmlns="http://www.w3.org/2000/svg"
   xmlns:svg="http://www.w3.org/2000/svg">
  <defs
     id="defs2" />
  <sodipodi:namedview
     id="namedview2"
     pagecolor="#ffffff"
     bordercolor="#000000"
     borderopacity="0.25"
     inkscape:showpageshadow="2"
     inkscape:pageopacity="0.0"
     inkscape:pagecheckerboard="0"
     inkscape:deskcolor="#d1d1d1"
     inkscape:zoom="4.3083333"
     inkscape:cx="59.883946"
     inkscape:cy="60"
     inkscape:window-width="1260"
     inkscape:window-height="660"
     inkscape:window-x="0"
     inkscape:window-y="0"
     inkscape:window-maximized="1"
     inkscape:current-layer="svg2" />
  <g
     id="SVGRepo_bgCarrier"
     stroke-width="0" />
  <g
     id="SVGRepo_tracerCarrier"
     stroke-linecap="round"
     stroke-linejoin="round" />
  <g
     id="SVGRepo_iconCarrier"
     style="fill:#ffffff;fill-opacity:1">
    <path
       opacity="0.15"
       d="M9 6C9 4.34315 10.3431 3 12 3C13.6569 3 15 4.34315 15 6V12C15 13.6569 13.6569 15 12 15C10.3431 15 9 13.6569 9 12V6Z"
       fill="#000000"
       style="fill:#ffffff;fill-opacity:1"
       data-darkreader-inline-fill=""
       id="path1" />
    <path
       d="M18 12C18 15.3137 15.3137 18 12 18M12 18C8.68629 18 6 15.3137 6 12M12 18V21M12 21H15M12 21H9M15 6V12C15 13.6569 13.6569 15 12 15C10.3431 15 9 13.6569 9 12V6C9 4.34315 10.3431 3 12 3C13.6569 3 15 4.34315 15 6Z"
       stroke="#000000"
       stroke-width="1.5"
       stroke-linecap="round"
       stroke-linejoin="round"
       style="fill:#d5c4a1;fill-opacity:1"
       data-darkreader-inline-stroke=""
       id="path2" />
  </g>
</svg>
