<?xml version="1.0" encoding="UTF-8" standalone="no"?>
<!-- Uploaded to: SVG Repo, www.svgrepo.com, Generator: SVG Repo Mixer Tools -->

<svg
   height="120px"
   width="120px"
   version="1.1"
   id="Layer_1"
   viewBox="0 0 496.8 496.8"
   xml:space="preserve"
   sodipodi:docname="vol-10.svg"
   inkscape:version="1.3.2 (091e20ef0f, 2023-11-25, custom)"
   xmlns:inkscape="http://www.inkscape.org/namespaces/inkscape"
   xmlns:sodipodi="http://sodipodi.sourceforge.net/DTD/sodipodi-0.dtd"
   xmlns="http://www.w3.org/2000/svg"
   xmlns:svg="http://www.w3.org/2000/svg"><defs
   id="defs23" /><sodipodi:namedview
   id="namedview21"
   pagecolor="#ffffff"
   bordercolor="#000000"
   borderopacity="0.25"
   inkscape:showpageshadow="2"
   inkscape:pageopacity="0.0"
   inkscape:pagecheckerboard="0"
   inkscape:deskcolor="#d1d1d1"
   showgrid="true"
   inkscape:zoom="3.3029368"
   inkscape:cx="57.524564"
   inkscape:cy="45.868271"
   inkscape:window-width="1260"
   inkscape:window-height="660"
   inkscape:window-x="0"
   inkscape:window-y="0"
   inkscape:window-maximized="1"
   inkscape:current-layer="Layer_1"><inkscape:grid
     type="xygrid"
     id="grid3192"
     originx="0"
     originy="0"
     spacingy="1"
     spacingx="1"
     units="px"
     visible="true" /></sodipodi:namedview>






<g
   id="g3158"
   inkscape:label="base"
   style="fill:#3e3d53;fill-opacity:1"><path
     style="display:inline;fill:#3e3d53;fill-opacity:1;stroke-width:1.584"
     d="m 248.87519,445.92001 c 116.5824,0 212.8896,-91.2384 220.4928,-205.2864 0,5.0688 1.2672,8.8704 1.2672,13.9392 0,121.6512 -98.8416,221.76 -221.76,221.76 -121.6512,0 -221.759991,-98.8416 -221.759991,-221.76 0,-5.0688 0,-8.8704 1.2672,-13.9392 7.6032,114.048 103.910391,205.2864 220.492791,205.2864 z"
     id="path8"
     inkscape:label="shadow" /><circle
     style="display:inline;fill:#3e3d53;fill-opacity:1;stroke-width:1.584"
     cx="248.8752"
     cy="243.07127"
     r="221.76001"
     id="circle12"
     inkscape:label="dial" /><path
     style="display:inline;fill:#3e3d53;fill-opacity:1;stroke-width:1.58653"
     d="m 405.74362,86.606184 c 86.3078,86.307816 86.3078,227.192636 0,313.500456 -86.30783,86.3078 -227.19264,86.3078 -313.500453,0"
     id="path14"
     inkscape:label="highlight" /></g>

<g
   id="g3198"
   inkscape:label="main"
   transform="matrix(1,0,0,0.79664635,48.883769,31.452433)"
   style="fill:#d21404;fill-opacity:1"><circle
     style="display:none;fill:#d21404;fill-opacity:1;stroke-width:1.584"
     cx="-154.87985"
     cy="311.57745"
     r="221.76001"
     id="circle12-3"
     inkscape:label="anchor"
     transform="rotate(-72)" /><path
     style="display:inline;fill:#d5c4a1;stroke-width:1.584;fill-opacity:1"
     d="m 143.55713,195.74179 c 7.23108,2.34953 10.48545,8.73659 8.13593,15.96766 v 0 c -2.34952,7.23107 -8.73658,10.48544 -15.96765,8.13593 L 87.518248,204.18192 c -7.231071,-2.34952 -10.485442,-8.73658 -8.135923,-15.96765 v 0 c 2.349517,-7.23108 8.736578,-10.48545 15.967651,-8.13593 z"
     id="path915"
     inkscape:label="pointer" /></g>
<text
   xml:space="preserve"
   style="font-weight:bold;font-size:49.68px;font-family:'Source Code Pro';-inkscape-font-specification:'Source Code Pro Bold';fill:#ffffff;stroke-width:4.14"
   x="45.123482"
   y="198.04193"
   id="text1"><tspan
     sodipodi:role="line"
     id="tspan1"
     style="stroke-width:4.14"
     x="45.123482"
     y="198.04193">10</tspan></text></svg>
