<?xml version="1.0" encoding="UTF-8" standalone="no"?>
<svg
   width="22"
   height="22"
   version="1.1"
   id="svg1"
   sodipodi:docname="blueberry-tray-disabled.svg"
   inkscape:version="1.3.2 (091e20ef0f, 2023-11-25, custom)"
   xmlns:inkscape="http://www.inkscape.org/namespaces/inkscape"
   xmlns:sodipodi="http://sodipodi.sourceforge.net/DTD/sodipodi-0.dtd"
   xmlns="http://www.w3.org/2000/svg"
   xmlns:svg="http://www.w3.org/2000/svg">
  <sodipodi:namedview
     id="namedview1"
     pagecolor="#ffffff"
     bordercolor="#000000"
     borderopacity="0.25"
     inkscape:showpageshadow="2"
     inkscape:pageopacity="0.0"
     inkscape:pagecheckerboard="0"
     inkscape:deskcolor="#d1d1d1"
     inkscape:zoom="23.5"
     inkscape:cx="10.93617"
     inkscape:cy="13.06383"
     inkscape:window-width="1109"
     inkscape:window-height="665"
     inkscape:window-x="0"
     inkscape:window-y="0"
     inkscape:window-maximized="1"
     inkscape:current-layer="g1" />
  <defs
     id="defs1">
    <style
       id="current-color-scheme"
       type="text/css">
   .ColorScheme-Text { color:#dfdfdf; } .ColorScheme-Highlight { color:#4285f4; }
  </style>
  </defs>
  <g
     transform="translate(-57 -791.34)"
     id="g1">
    <path
       opacity="0.3"
       style="fill:#ffffff;fill-opacity:1;stroke-width:1.17754"
       class="ColorScheme-Text"
       d="m 68.521275,792.78553 c -3.55385,0 -6.414893,3.18131 -6.414893,7.13298 v 4.75531 c 0,3.95167 2.861043,7.13298 6.414893,7.13298 3.553852,0 6.414894,-3.18131 6.414894,-7.13298 v -4.75531 c 0,-3.95167 -2.861042,-7.13298 -6.414894,-7.13298 z m -0.583171,2.37766 h 0.583171 c 0.242308,0 0.458432,0.15801 0.546724,0.37152 l 3.35324,3.38078 0.473828,0.44582 -0.510276,0.40865 -2.988758,2.52626 2.988758,2.52627 0.510276,0.40866 -0.473828,0.44582 -3.35324,3.38078 c -0.02939,0.0713 -0.09307,0.13204 -0.145793,0.18577 -0.105441,0.10746 -0.239392,0.18575 -0.400931,0.18575 h -0.583171 v -5.86986 l -2.514872,2.11756 c -0.105552,0.10757 -0.239895,0.18575 -0.400931,0.18575 h -0.583173 v -0.59442 c 0,-0.18215 0.09214,-0.33677 0.21869,-0.44581 l 2.988758,-2.52627 -2.842965,-2.41474 c -0.05447,-0.0235 -0.101233,-0.0732 -0.145793,-0.11142 -0.126595,-0.10904 -0.21869,-0.26366 -0.21869,-0.44582 v -0.5944 h 0.583173 c 0.143367,0 0.262929,0.061 0.364482,0.1486 0.01249,0.0105 0.02485,0.0253 0.03639,0.0371 l 2.514872,2.11756 v -5.86985 z m 1.166344,2.00614 v 3.86371 l 2.077493,-1.74616 z m 0,6.38998 v 3.86369 l 2.077493,-2.11754 z"
       id="path1" />
  </g>
</svg>
