<?xml version="1.0" encoding="UTF-8" standalone="no"?>
<svg
   width="22"
   height="22"
   version="1.1"
   id="svg1"
   sodipodi:docname="blueberry-tray-active.svg"
   inkscape:version="1.3.2 (091e20ef0f, 2023-11-25, custom)"
   xmlns:inkscape="http://www.inkscape.org/namespaces/inkscape"
   xmlns:sodipodi="http://sodipodi.sourceforge.net/DTD/sodipodi-0.dtd"
   xmlns="http://www.w3.org/2000/svg"
   xmlns:svg="http://www.w3.org/2000/svg">
  <sodipodi:namedview
     id="namedview1"
     pagecolor="#ffffff"
     bordercolor="#000000"
     borderopacity="0.25"
     inkscape:showpageshadow="2"
     inkscape:pageopacity="0.0"
     inkscape:pagecheckerboard="0"
     inkscape:deskcolor="#d1d1d1"
     inkscape:zoom="23.5"
     inkscape:cx="10.93617"
     inkscape:cy="10.553191"
     inkscape:window-width="1111"
     inkscape:window-height="665"
     inkscape:window-x="0"
     inkscape:window-y="0"
     inkscape:window-maximized="1"
     inkscape:current-layer="g1" />
  <defs
     id="defs1">
    <style
       id="current-color-scheme"
       type="text/css">
   .ColorScheme-Text { color:#dfdfdf; } .ColorScheme-Highlight { color:#4285f4; }
  </style>
  </defs>
  <g
     transform="translate(-33 -791.34)"
     id="g1">
    <path
       style="fill:#ffffff;fill-opacity:1;stroke-width:1.22965"
       class="ColorScheme-Text"
       d="m 44.202128,793.16851 c -3.919254,0 -7.074469,3.14573 -7.074469,7.05319 v 4.70213 c 0,3.90746 3.155215,7.05319 7.074469,7.05319 3.919256,0 7.074468,-3.14573 7.074468,-7.05319 v -4.70213 c 0,-3.90746 -3.155212,-7.05319 -7.074468,-7.05319 z m -0.643132,2.35107 h 0.643132 c 0.267222,0 0.505566,0.15624 0.602937,0.36734 l 3.698017,3.34299 0.522548,0.44081 -0.562743,0.40411 -3.296059,2.498 3.296059,2.49801 0.562743,0.40408 -0.522548,0.44083 -3.698017,3.34297 c -0.03241,0.0705 -0.102649,0.13056 -0.160782,0.18367 -0.116272,0.10625 -0.264007,0.18368 -0.442155,0.18368 h -0.643132 v -5.80419 l -2.773451,2.09387 c -0.116405,0.10635 -0.264559,0.18367 -0.442153,0.18367 h -0.643133 v -0.58776 c 0,-0.18012 0.10162,-0.33301 0.241174,-0.44082 l 3.296059,-2.49801 -3.135275,-2.38775 c -0.06007,-0.0232 -0.11164,-0.0722 -0.160784,-0.1101 -0.139611,-0.10783 -0.241174,-0.26072 -0.241174,-0.44083 v -0.58775 h 0.643133 c 0.158107,0 0.289963,0.0605 0.401958,0.14693 0.01376,0.0104 0.0274,0.0251 0.04014,0.0368 l 2.773447,2.09385 v -5.80419 z m 1.286266,1.9837 v 3.82048 l 2.291098,-1.72661 z m 0,6.31849 v 3.82048 l 2.291098,-2.09387 z"
       id="path1" />
  </g>
</svg>
