<?xml version="1.0" encoding="UTF-8" standalone="no"?>
<svg
   width="24"
   height="24"
   version="1.1"
   id="svg1"
   sodipodi:docname="discord-tray-unread.svg"
   inkscape:version="1.3.2 (091e20ef0f, 2023-11-25, custom)"
   xmlns:inkscape="http://www.inkscape.org/namespaces/inkscape"
   xmlns:sodipodi="http://sodipodi.sourceforge.net/DTD/sodipodi-0.dtd"
   xmlns="http://www.w3.org/2000/svg"
   xmlns:svg="http://www.w3.org/2000/svg">
  <sodipodi:namedview
     id="namedview1"
     pagecolor="#ffffff"
     bordercolor="#000000"
     borderopacity="0.25"
     inkscape:showpageshadow="2"
     inkscape:pageopacity="0.0"
     inkscape:pagecheckerboard="0"
     inkscape:deskcolor="#d1d1d1"
     inkscape:zoom="11.833333"
     inkscape:cx="11.915493"
     inkscape:cy="11.915493"
     inkscape:window-width="1260"
     inkscape:window-height="665"
     inkscape:window-x="0"
     inkscape:window-y="0"
     inkscape:window-maximized="1"
     inkscape:current-layer="svg1" />
  <defs
     id="defs1">
    <style
       id="current-color-scheme"
       type="text/css">
   .ColorScheme-Text { color:#dfdfdf; } .ColorScheme-Highlight { color:#5294e2; }
  </style>
  </defs>
  <path
     style="fill:#ffffff;fill-opacity:1"
     class="ColorScheme-Text"
     d="m 10.175781,6.0000002 c 0,0 -1.9804458,-0.04304 -4.0781248,1.4980469 C 3.9999782,9.0391301 3,12.228965 3,16.824219 c 0,0 2.2239914,2.074982 5.4433594,2.175781 0,0 0.5395465,-0.634246 0.9765625,-1.181641 C 7.5699399,17.270965 6.8691406,15.632812 6.8691406,15.632812 8.5736651,16.585677 9.732467,16.983424 11.5,17 c 1.767533,-0.01658 3.926335,-0.414323 5.630859,-1.367188 0,0 -0.700799,1.638153 -2.550781,2.185547 C 15.017094,18.365754 15.556641,19 15.556641,19 18.776009,18.899201 21,16.824219 21,16.824219 21,12.228965 20.000022,9.0391301 17.902344,7.4980471 15.804665,5.9569601 13.824219,6.0000002 13.824219,6.0000002 l -0.146485,0.171875 c 2.622073,0.734693 3.816407,2.3730469 3.816407,2.3730469 0,0 -0.320389,-0.1718468 -0.859375,-0.4023438 C 14.999968,7.3578111 13.000043,6.9999687 11.5,7.0000002 9.999957,6.9999687 9.0000334,7.3578111 7.3652344,8.1425783 c -0.5389855,0.230497 -0.859375,0.4023438 -0.859375,0.4023438 0,0 1.1943322,-1.6383539 3.8164066,-2.3730469 z M 9.5,12 c 0.838151,0 1.5146,0.668208 1.5,1.5 C 11,14.331792 10.338151,15 9.5,15 8.676558,15 8,14.331792 8,13.5 8,12.668208 8.661868,12 9.5,12 Z m 5,0 C 15.338132,12 16,12.668208 16,13.5 16,14.331792 15.323442,15 14.5,15 13.661849,15 13,14.331792 13,13.5 12.9854,12.668208 13.661849,12 14.5,12 Z"
     id="path1" />
  <circle
     style="fill:currentColor"
     class="ColorScheme-Highlight"
     cx="21"
     cy="7"
     r="2"
     id="circle1" />
</svg>
