<?xml version="1.0" encoding="UTF-8" standalone="no"?>
<!-- Uploaded to: SVG Repo, www.svgrepo.com, Generator: SVG Repo Mixer Tools -->

<svg
   fill="#000000"
   width="120px"
   height="120px"
   viewBox="0 0 56 56"
   version="1.1"
   id="svg1"
   sodipodi:docname="muted-speaker.svg"
   inkscape:version="1.3.2 (091e20ef0f, 2023-11-25, custom)"
   xmlns:inkscape="http://www.inkscape.org/namespaces/inkscape"
   xmlns:sodipodi="http://sodipodi.sourceforge.net/DTD/sodipodi-0.dtd"
   xmlns="http://www.w3.org/2000/svg"
   xmlns:svg="http://www.w3.org/2000/svg">
  <defs
     id="defs1" />
  <sodipodi:namedview
     id="namedview1"
     pagecolor="#ffffff"
     bordercolor="#000000"
     borderopacity="0.25"
     inkscape:showpageshadow="2"
     inkscape:pageopacity="0.0"
     inkscape:pagecheckerboard="0"
     inkscape:deskcolor="#d1d1d1"
     inkscape:zoom="4.3083333"
     inkscape:cx="60.116055"
     inkscape:cy="60"
     inkscape:window-width="1260"
     inkscape:window-height="660"
     inkscape:window-x="0"
     inkscape:window-y="0"
     inkscape:window-maximized="1"
     inkscape:current-layer="svg1" />
  <path
     d="M 39.1796 33.4024 L 39.1796 8.2070 C 39.1796 6.6367 38.0312 5.3242 36.3906 5.3242 C 35.2421 5.3242 34.4687 5.8398 33.2265 7.0117 L 23.6171 16.1055 C 23.4765 16.2461 23.3359 16.3398 23.1718 16.3867 L 22.2343 16.4570 Z M 46.7733 49.9727 C 47.4999 50.6758 48.6484 50.6758 49.3280 49.9727 C 50.0312 49.2461 50.0548 48.1211 49.3280 47.4180 L 9.2030 7.2929 C 8.4999 6.5898 7.3280 6.5898 6.6249 7.2929 C 5.9452 7.9727 5.9452 9.1680 6.6249 9.8476 Z M 36.4374 48.3320 C 37.8202 48.3320 38.7812 47.5117 39.0859 46.1289 L 11.4062 18.4961 C 10.6562 19.3867 10.2343 20.6758 10.2343 22.3164 L 10.2343 31.4102 C 10.2343 34.9258 12.0155 36.7305 15.3202 36.7305 L 22.2812 36.7305 C 22.5155 36.7305 22.7265 36.8008 22.8671 36.9414 L 33.2265 46.8086 C 34.3515 47.8633 35.2890 48.3320 36.4374 48.3320 Z"
     id="path1"
     style="fill:#d5c4a1;fill-opacity:1" />
</svg>
