<?xml version="1.0" encoding="UTF-8" standalone="no"?>
<!-- Uploaded to: SVG Repo, www.svgrepo.com, Generator: SVG Repo Mixer Tools -->

<svg
   fill="#000000"
   width="120px"
   height="120px"
   viewBox="0 0 56 56"
   version="1.1"
   id="svg1"
   sodipodi:docname="unmuted-speaker.svg"
   inkscape:version="1.3.2 (091e20ef0f, 2023-11-25, custom)"
   xmlns:inkscape="http://www.inkscape.org/namespaces/inkscape"
   xmlns:sodipodi="http://sodipodi.sourceforge.net/DTD/sodipodi-0.dtd"
   xmlns="http://www.w3.org/2000/svg"
   xmlns:svg="http://www.w3.org/2000/svg">
  <defs
     id="defs1" />
  <sodipodi:namedview
     id="namedview1"
     pagecolor="#ffffff"
     bordercolor="#000000"
     borderopacity="0.25"
     inkscape:showpageshadow="2"
     inkscape:pageopacity="0.0"
     inkscape:pagecheckerboard="0"
     inkscape:deskcolor="#d1d1d1"
     inkscape:zoom="4.3083333"
     inkscape:cx="60.116055"
     inkscape:cy="60"
     inkscape:window-width="1260"
     inkscape:window-height="660"
     inkscape:window-x="0"
     inkscape:window-y="0"
     inkscape:window-maximized="1"
     inkscape:current-layer="svg1" />
  <path
     d="M 39.7305 49.5039 C 41.3242 49.5039 42.4726 48.3320 42.4726 46.7617 L 42.4726 9.3789 C 42.4726 7.8086 41.3242 6.4961 39.6836 6.4961 C 38.5352 6.4961 37.7617 7.0117 36.5195 8.1836 L 26.1836 17.9570 C 26.0195 18.0977 25.8086 18.1680 25.5742 18.1680 L 18.6133 18.1680 C 15.3086 18.1680 13.5274 19.9726 13.5274 23.4883 L 13.5274 32.5820 C 13.5274 36.0977 15.3086 37.9024 18.6133 37.9024 L 25.5742 37.9024 C 25.8086 37.9024 26.0195 37.9726 26.1836 38.1133 L 36.5195 47.9805 C 37.6445 49.0352 38.5820 49.5039 39.7305 49.5039 Z"
     id="path1"
     style="fill:#d5c4a1;fill-opacity:1" />
</svg>
