<?xml version="1.0" encoding="UTF-8" standalone="no"?>
<svg
   width="16"
   height="16"
   version="1.1"
   id="svg1"
   sodipodi:docname="blueberry-tray-active.svg"
   inkscape:version="1.3.2 (091e20ef0f, 2023-11-25, custom)"
   xmlns:inkscape="http://www.inkscape.org/namespaces/inkscape"
   xmlns:sodipodi="http://sodipodi.sourceforge.net/DTD/sodipodi-0.dtd"
   xmlns="http://www.w3.org/2000/svg"
   xmlns:svg="http://www.w3.org/2000/svg">
  <sodipodi:namedview
     id="namedview1"
     pagecolor="#ffffff"
     bordercolor="#000000"
     borderopacity="0.25"
     inkscape:showpageshadow="2"
     inkscape:pageopacity="0.0"
     inkscape:pagecheckerboard="0"
     inkscape:deskcolor="#d1d1d1"
     inkscape:zoom="17.75"
     inkscape:cx="7.971831"
     inkscape:cy="7.971831"
     inkscape:window-width="1260"
     inkscape:window-height="664"
     inkscape:window-x="0"
     inkscape:window-y="0"
     inkscape:window-maximized="1"
     inkscape:current-layer="svg1" />
  <defs
     id="defs1">
    <style
       id="current-color-scheme"
       type="text/css">
   .ColorScheme-Text { color:#dfdfdf; } .ColorScheme-Highlight { color:#4285f4; }
  </style>
  </defs>
  <path
     style="fill:#ebdbb2;fill-opacity:1"
     class="ColorScheme-Text"
     d="M 8 1 C 5.23 1 3 3.345 3 6.25 L 3 9.75 C 3 12.655 5.23 15 8 15 C 10.77 15 13 12.655 13 9.75 L 13 6.25 C 13 3.345 10.77 1 8 1 z M 7.4980469 3 A 0.50005 0.50005 0 0 1 7.8203125 3.1152344 L 10.820312 5.6152344 A 0.50005 0.50005 0 0 1 10.787109 6.4101562 L 8.515625 8 L 10.787109 9.5898438 A 0.50005 0.50005 0 0 1 10.820312 10.384766 L 7.8203125 12.884766 A 0.50005 0.50005 0 0 1 7 12.5 L 7 9.0605469 L 5.7871094 9.9101562 A 0.50065948 0.50065948 0 0 1 5.2128906 9.0898438 L 6.7695312 8 L 5.2128906 6.9101562 A 0.50065948 0.50065948 0 0 1 5.7871094 6.0898438 L 7 6.9394531 L 7 3.5 A 0.50005 0.50005 0 0 1 7.4980469 3 z M 8 4.5683594 L 8 7.1386719 L 9.6757812 5.9648438 L 8 4.5683594 z M 8 8.8613281 L 8 11.431641 L 9.6757812 10.035156 L 8 8.8613281 z"
     id="path1" />
</svg>
